HIERARCHY
ROOT root
{
	OFFSET 0.000000 0.000000 0.000000
	CHANNELS 6 Xposition Yposition Zposition Zrotation Yrotation Xrotation
	JOINT lhip
	{
		OFFSET 0.058581 -0.082280 -0.017664
		CHANNELS 3 Zrotation Yrotation Xrotation
		JOINT lknee
		{
			OFFSET 0.043451 -0.386469 0.008037
			CHANNELS 3 Zrotation Yrotation Xrotation
			JOINT lankle
			{
				OFFSET -0.014790 -0.426874 -0.037428
				CHANNELS 3 Zrotation Yrotation Xrotation
				JOINT ltoe
				{
					OFFSET 0.041054 -0.060286 0.122042
					CHANNELS 3 Zrotation Yrotation Xrotation
					End Site
					{
						OFFSET 0.000000 0.000000 0.000000
					}
				}
			}
		}
	}
	JOINT rhip
	{
		OFFSET -0.060310 -0.090513 -0.013543
		CHANNELS 3 Zrotation Yrotation Xrotation
		JOINT rknee
		{
			OFFSET -0.043257 -0.383688 -0.004843
			CHANNELS 3 Zrotation Yrotation Xrotation
			JOINT rankle
			{
				OFFSET 0.019056 -0.420046 -0.034562
				CHANNELS 3 Zrotation Yrotation Xrotation
				JOINT rtoe
				{
					OFFSET -0.034840 -0.062106 0.130323
					CHANNELS 3 Zrotation Yrotation Xrotation
					End Site
					{
						OFFSET 0.000000 0.000000 0.000000
					}
				}
			}
		}
	}
	JOINT lowerback
	{
		OFFSET 0.004439 0.124404 -0.038385
		CHANNELS 3 Zrotation Yrotation Xrotation
		JOINT upperback
		{
			OFFSET 0.004488 0.137956 0.026820
			CHANNELS 3 Zrotation Yrotation Xrotation
			JOINT chest
			{
				OFFSET -0.002265 0.056032 0.002855
				CHANNELS 3 Zrotation Yrotation Xrotation
				JOINT lowerneck
				{
					OFFSET -0.013390 0.211636 -0.033468
					CHANNELS 3 Zrotation Yrotation Xrotation
					JOINT upperneck
					{
						OFFSET 0.010113 0.088937 0.050410
						CHANNELS 3 Zrotation Yrotation Xrotation
						End Site
						{
							OFFSET 0.000000 0.000000 0.000000
						}
					}
				}
				JOINT lclavicle
				{
					OFFSET 0.071702 0.114000 -0.018898
					CHANNELS 3 Zrotation Yrotation Xrotation
					JOINT lshoulder
					{
						OFFSET 0.122921 0.045205 -0.019046
						CHANNELS 3 Zrotation Yrotation Xrotation
						JOINT lelbow
						{
							OFFSET 0.255332 -0.015649 -0.022946
							CHANNELS 3 Zrotation Yrotation Xrotation
							JOINT lwrist
							{
								OFFSET 0.265709 0.012698 -0.007375
								CHANNELS 3 Zrotation Yrotation Xrotation
								End Site
								{
									OFFSET 0.000000 0.000000 0.000000
								}
							}
						}
					}
				}
				JOINT rclavicle
				{
					OFFSET -0.082954 0.112472 -0.023707
					CHANNELS 3 Zrotation Yrotation Xrotation
					JOINT rshoulder
					{
						OFFSET -0.113228 0.046853 -0.008472
						CHANNELS 3 Zrotation Yrotation Xrotation
						JOINT relbow
						{
							OFFSET -0.260127 -0.014369 -0.031269
							CHANNELS 3 Zrotation Yrotation Xrotation
							JOINT rwrist
							{
								OFFSET -0.269108 0.006794 -0.006027
								CHANNELS 3 Zrotation Yrotation Xrotation
								End Site
								{
									OFFSET 0.000000 0.000000 0.000000
								}
							}
						}
					}
				}
			}
		}
	}
}
MOTION
Frames: 17
Frame Time: 0.033333
0.943668 3.009223 0.985396 -39.051092 1.297060 86.198139 1.921296 5.373722 9.659977 -4.057369 2.297519 -3.146443 3.263536 14.413367 -15.065223 0.000000 -0.000000 0.000000 2.639622 -0.808601 -1.423942 1.094093 -3.940195 16.569019 1.868449 -9.909425 -15.694100 0.000000 -0.000000 0.000000 2.395846 -3.112792 3.044288 1.422712 -2.130011 2.911607 -0.558135 -2.269142 4.599650 2.881388 1.203728 -3.904417 -1.908315 -0.842564 11.382490 -25.996308 6.095631 -0.284140 -62.737655 -7.181187 9.995061 6.940940 -26.429062 9.098780 -2.159960 -6.124847 -7.548683 23.552130 -1.191492 -1.525359 56.588209 4.472516 16.433363 -7.282002 27.164850 2.270683 3.370227 4.965818 -8.683142 
0.943684 3.008888 0.985270 -39.091959 1.291473 86.177112 1.901881 5.290860 9.710123 -4.070117 2.340321 -3.162394 3.322635 14.467073 -15.062301 0.000000 -0.000000 0.000000 2.616074 -0.758154 -1.330525 1.202121 -3.730743 16.477841 2.099021 -10.154930 -15.737715 0.000000 -0.000000 0.000000 2.468286 -3.173562 2.951868 1.280410 -2.045079 2.750100 -0.522465 -2.246837 4.918524 2.975332 1.288003 -4.256371 -1.938699 -0.934779 11.913271 -25.660182 6.002413 -0.126821 -63.149657 -7.283357 9.976685 7.222687 -26.416485 9.009566 -2.292806 -6.218785 -7.571545 23.469566 -1.207882 -1.345412 56.846496 4.663253 16.437662 -7.557461 27.042704 2.021199 3.276436 4.922433 -8.361888 
0.943659 3.008591 0.985152 -39.187651 1.276384 86.099368 1.876606 5.302230 9.845653 -4.066142 2.371009 -3.197514 3.359073 14.503778 -15.080160 0.000000 -0.000000 0.000000 2.576228 -0.777502 -1.227788 1.200099 -3.702615 16.487309 2.131795 -10.082774 -15.742443 0.000000 -0.000000 0.000000 2.491016 -3.131023 2.900108 1.259961 -2.018720 2.834422 -0.534060 -2.256141 4.999436 3.009367 1.275071 -4.278507 -1.923862 -0.928975 11.904504 -25.590541 6.026977 -0.064535 -63.240352 -7.232100 9.986957 7.349713 -26.683391 8.966769 -2.332308 -6.252846 -7.633762 23.464372 -1.224508 -1.346310 56.941653 4.651864 16.429586 -7.690788 27.058907 2.030741 3.248079 4.810102 -8.295885 
0.943645 3.008401 0.984991 -39.255747 1.268135 86.010520 1.862765 5.362399 10.002868 -4.040079 2.327031 -3.264677 3.388267 14.529912 -15.082506 0.000000 -0.000000 0.000000 2.538869 -0.826016 -1.124386 1.191884 -3.695844 16.507316 2.165259 -9.981958 -15.742763 0.000000 -0.000000 0.000000 2.498472 -3.095144 2.850180 1.258612 -2.014752 2.943387 -0.528649 -2.281696 5.071266 3.018516 1.264943 -4.274140 -1.893174 -0.898982 11.863614 -25.516460 6.009674 -0.007603 -63.314027 -7.185126 10.006445 7.440853 -26.884669 8.922427 -2.384372 -6.312944 -7.696968 23.434856 -1.236942 -1.355143 57.014027 4.622010 16.420896 -7.747139 27.115885 2.102024 3.437996 4.705344 -8.298251 
0.943654 3.008234 0.984917 -39.323965 1.253570 85.954798 1.842273 5.396498 10.104491 -4.032327 2.338008 -3.306058 3.378392 14.536960 -15.075345 0.000000 -0.000000 0.000000 2.496480 -0.843751 -1.062980 1.188460 -3.704213 16.518347 2.204060 -9.887546 -15.737741 0.000000 -0.000000 0.000000 2.516293 -3.046404 2.843717 1.246175 -1.990915 2.980011 -0.538353 -2.294904 5.092998 3.030537 1.226144 -4.241653 -1.880266 -0.913448 11.872466 -25.451932 5.988307 0.049826 -63.359724 -7.154671 10.036815 7.485069 -26.970317 8.885779 -2.467293 -6.386264 -7.706586 23.405297 -1.250059 -1.347361 57.060243 4.584186 16.374746 -7.723784 27.073955 2.015346 3.625976 4.761864 -8.439331 
0.943697 3.008011 0.984849 -39.408231 1.236542 85.898005 1.809332 5.445955 10.229213 -4.019811 2.345488 -3.390727 3.393941 14.558715 -15.066690 0.000000 -0.000000 0.000000 2.448083 -0.859383 -1.008046 1.190854 -3.694913 16.543893 2.228963 -9.795046 -15.751040 0.000000 -0.000000 0.000000 2.562894 -2.985241 2.839212 1.219983 -1.958446 3.004952 -0.561548 -2.313008 5.098210 3.027604 1.174279 -4.190885 -1.867646 -0.933371 11.900167 -25.393091 5.945565 0.117236 -63.392347 -7.118643 10.035375 7.526036 -27.036814 8.824013 -2.565632 -6.411946 -7.701506 23.378283 -1.267373 -1.309841 57.104572 4.507127 16.338520 -7.778270 27.186941 1.982462 3.884747 4.770916 -8.467089 
0.943708 3.007914 0.984771 -39.461826 1.213696 85.836477 1.788954 5.510521 10.362149 -4.020143 2.314303 -3.475177 3.414233 14.574386 -15.039034 0.000000 -0.000000 0.000000 2.395200 -0.889722 -0.945327 1.190612 -3.676064 16.557281 2.266716 -9.734368 -15.735794 0.000000 -0.000000 0.000000 2.592686 -2.921406 2.840590 1.194322 -1.932266 3.013125 -0.577912 -2.371097 5.127215 3.008201 1.107147 -4.128494 -1.839709 -0.926071 11.934124 -25.307649 5.890643 0.199316 -63.420210 -7.084998 10.029864 7.536489 -27.116638 8.804793 -2.645197 -6.396467 -7.746600 23.312180 -1.313159 -1.285895 57.163264 4.385661 16.336990 -7.770826 27.494489 2.070900 4.273372 4.825217 -8.496091 
0.943717 3.007874 0.984736 -39.476056 1.199562 85.766465 1.779782 5.554549 10.470849 -4.013432 2.279053 -3.518571 3.407884 14.569509 -15.020494 0.000000 -0.000000 0.000000 2.367679 -0.905236 -0.873131 1.182835 -3.673183 16.554864 2.284680 -9.708892 -15.718566 0.000000 -0.000000 0.000000 2.616799 -2.901521 2.838273 1.178018 -1.931912 3.039072 -0.596894 -2.415922 5.162835 2.973826 1.082672 -4.059424 -1.823100 -0.896961 11.931009 -25.229516 5.839016 0.245236 -63.418437 -7.083918 10.037194 7.499052 -27.132271 8.849192 -2.707250 -6.383331 -7.813419 23.227704 -1.321020 -1.280504 57.247749 4.346139 16.308876 -7.693898 27.666155 2.011318 4.496025 4.924715 -8.730983 
0.943728 3.007765 0.984700 -39.522844 1.175993 85.669486 1.763180 5.629326 10.609775 -4.012677 2.227332 -3.556556 3.421596 14.587677 -15.025867 0.000000 -0.000000 0.000000 2.328472 -0.937666 -0.776195 1.186032 -3.614790 16.555262 2.296603 -9.682451 -15.710783 0.000000 -0.000000 0.000000 2.660860 -2.850454 2.862557 1.145424 -1.921401 3.069558 -0.633501 -2.443861 5.201813 2.939678 1.044751 -4.001515 -1.805928 -0.883561 11.890518 -25.134066 5.737140 0.277596 -63.375597 -7.122399 10.041694 7.367236 -27.083115 9.036536 -2.790301 -6.336318 -7.932200 23.146812 -1.333351 -1.314953 57.328221 4.301680 16.248159 -7.593022 27.816181 1.940085 4.632292 4.966615 -9.003112 
0.943799 3.007603 0.984684 -39.596228 1.136241 85.552842 1.731071 5.660411 10.757707 -4.045347 2.260253 -3.570577 3.429598 14.602666 -15.034633 0.000000 -0.000000 0.000000 2.261288 -0.957359 -0.677172 1.188349 -3.567707 16.576913 2.326687 -9.635587 -15.705324 0.000000 -0.000000 0.000000 2.720571 -2.756723 2.907129 1.092582 -1.886556 3.083328 -0.672667 -2.493808 5.247700 2.913297 1.009724 -3.945334 -1.776952 -0.861315 11.856724 -25.016521 5.601159 0.357703 -63.352810 -7.148306 10.039070 7.270577 -27.049062 9.141486 -2.833936 -6.311898 -8.010738 23.050417 -1.331065 -1.328244 57.421943 4.249677 16.205759 -7.550696 28.013115 1.898669 4.655327 4.967099 -9.199365 
0.943896 3.007627 0.984670 -39.614788 1.121414 85.503064 1.720002 5.663867 10.810737 -4.058718 2.265219 -3.574573 3.439302 14.613421 -15.036068 0.000000 -0.000000 0.000000 2.237266 -0.970583 -0.643347 1.186674 -3.560222 16.592005 2.327537 -9.615283 -15.703949 0.000000 -0.000000 0.000000 2.742495 -2.711475 2.926860 1.076174 -1.869321 3.076313 -0.677858 -2.528712 5.269696 2.904194 1.000178 -3.906731 -1.747364 -0.843054 11.855040 -24.949452 5.526933 0.414231 -63.357166 -7.151776 10.045706 7.251169 -27.074790 9.165262 -2.831554 -6.302708 -8.047018 23.003470 -1.295273 -1.308537 57.456934 4.245214 16.199173 -7.571111 28.093786 1.904322 4.636888 4.963633 -9.236586 
0.944033 3.007856 0.984632 -39.547967 1.129508 85.493643 1.717111 5.744214 10.836611 -3.992333 2.124198 -3.655578 3.456730 14.592902 -14.996774 0.000000 -0.000000 0.000000 2.252523 -1.016049 -0.653696 1.165455 -3.585636 16.602234 2.319296 -9.609835 -15.692773 0.000000 -0.000000 0.000000 2.753210 -2.699921 2.940077 1.069321 -1.868218 3.035747 -0.666190 -2.580312 5.296119 2.924157 0.986377 -3.892113 -1.693721 -0.837031 11.883625 -24.854964 5.442946 0.492512 -63.375495 -7.166372 10.064798 7.235245 -27.112614 9.190589 -2.785154 -6.306473 -8.091662 22.951953 -1.244085 -1.305095 57.494221 4.268552 16.181371 -7.574269 28.062387 1.906007 4.621153 4.962178 -9.267320 
0.944168 3.008007 0.984630 -39.517682 1.118671 85.458810 1.711521 5.835555 10.872542 -3.960663 2.000049 -3.681689 3.476513 14.582404 -14.973326 0.000000 -0.000000 0.000000 2.243079 -1.067034 -0.638928 1.143693 -3.587120 16.618745 2.322489 -9.586163 -15.686984 0.000000 -0.000000 0.000000 2.777277 -2.646974 2.963950 1.038248 -1.842272 2.989299 -0.676761 -2.627831 5.350890 2.960198 0.986076 -3.912244 -1.598866 -0.829221 11.934193 -24.700086 5.323489 0.595912 -63.405194 -7.220465 10.105809 7.189112 -27.115513 9.261908 -2.704932 -6.320466 -8.160451 22.878039 -1.168458 -1.314652 57.568399 4.302326 16.135572 -7.566885 27.893898 1.843737 4.628598 4.902849 -9.388841 
0.944242 3.008159 0.984644 -39.484075 1.088776 85.366086 1.705029 5.899397 10.977843 -3.969820 1.930267 -3.686785 3.486414 14.557350 -14.984178 0.000000 -0.000000 0.000000 2.195638 -1.133345 -0.538195 1.136424 -3.583156 16.587178 2.359087 -9.551040 -15.652296 0.000000 -0.000000 0.000000 2.789524 -2.563814 3.020873 1.000865 -1.820397 2.982783 -0.689918 -2.689825 5.399173 3.004735 0.958032 -3.935459 -1.528408 -0.842342 11.959639 -24.587682 5.168809 0.668270 -63.345029 -7.277271 10.139573 7.092211 -27.004270 9.310127 -2.641672 -6.362596 -8.129554 22.815823 -1.103185 -1.356131 57.592344 4.344808 16.061477 -7.458154 27.666504 1.754592 4.697498 4.864147 -9.506377 
0.944251 3.008238 0.984634 -39.458593 1.051920 85.267997 1.681120 5.967138 11.127994 -3.972897 1.872589 -3.739331 3.454263 14.536889 -14.989928 0.000000 -0.000000 0.000000 2.123442 -1.176286 -0.425407 1.139926 -3.576006 16.532612 2.435401 -9.509674 -15.595173 0.000000 -0.000000 0.000000 2.802060 -2.484281 3.065262 0.962109 -1.778414 2.999092 -0.705713 -2.744711 5.433604 3.071965 0.919602 -3.945238 -1.481111 -0.862680 11.935821 -24.544794 5.075593 0.712497 -63.208330 -7.290488 10.146017 7.012020 -26.961515 9.278383 -2.611936 -6.411448 -8.061856 22.732513 -1.079611 -1.409329 57.588641 4.324280 16.012431 -7.252442 27.522576 1.690660 4.691733 4.943524 -9.648067 
0.944318 3.008279 0.984634 -39.440387 1.022816 85.198616 1.660257 5.995181 11.224827 -3.979673 1.830771 -3.777531 3.460304 14.538304 -14.985036 0.000000 -0.000000 0.000000 2.071201 -1.230214 -0.355348 1.140801 -3.563126 16.520609 2.462133 -9.468797 -15.580821 0.000000 -0.000000 0.000000 2.837570 -2.408222 3.097660 0.914977 -1.753440 3.012196 -0.730249 -2.785122 5.466527 3.085052 0.856184 -3.955491 -1.420705 -0.888971 11.890365 -24.448559 4.964394 0.769948 -63.162055 -7.311117 10.136643 6.998468 -26.935313 9.262611 -2.628896 -6.416629 -8.087731 22.653856 -1.024425 -1.423306 57.591917 4.275904 16.001274 -7.209346 27.512141 1.781698 4.801224 4.910271 -9.628895 
0.944390 3.008344 0.984652 -39.398292 0.988191 85.130811 1.630052 6.009361 11.314391 -3.983985 1.778561 -3.812763 3.468176 14.543405 -14.960048 0.000000 -0.000000 0.000000 2.014344 -1.263092 -0.296265 1.144794 -3.568429 16.507774 2.484972 -9.466145 -15.542556 0.000000 -0.000000 0.000000 2.858075 -2.349406 3.100278 0.874231 -1.739872 3.067448 -0.761681 -2.822878 5.505713 3.100368 0.807862 -3.940890 -1.383328 -0.898790 11.825435 -24.374825 4.880278 0.802886 -63.053834 -7.350520 10.118160 6.940770 -26.912009 9.261069 -2.673103 -6.431260 -8.090377 22.566258 -0.990946 -1.461909 57.619925 4.227487 16.000446 -7.215299 27.518391 1.872860 4.929196 4.843980 -9.573907 
